<?xml version="1.0" encoding="UTF-8"?>
<svg version="1.1" xmlns="http://www.w3.org/2000/svg" width="279" height="267">
<path d="M0 0 C92.07 0 184.14 0 279 0 C279 88.11 279 176.22 279 267 C186.93 267 94.86 267 0 267 C0 178.89 0 90.78 0 0 Z " fill="#000000" transform="translate(0,0)"/>
<path d="M0 0 C92.07 0 184.14 0 279 0 C279 88.11 279 176.22 279 267 C186.93 267 94.86 267 0 267 C0 178.89 0 90.78 0 0 Z M150 5 C150 5.66 150 6.32 150 7 C149.34 7 148.68 7 148 7 C148 8.98 148 10.96 148 13 C132.16 13 116.32 13 100 13 C100 13.66 100 14.32 100 15 C91.42 15 82.84 15 74 15 C74 15.66 74 16.32 74 17 C73.34 17 72.68 17 72 17 C72 22.28 72 27.56 72 33 C72.66 33 73.32 33 74 33 C74 33.66 74 34.32 74 35 C74.66 35 75.32 35 76 35 C76 35.66 76 36.32 76 37 C76.66 37 77.32 37 78 37 C78 37.66 78 38.32 78 39 C79.32 39 80.64 39 82 39 C82 39.66 82 40.32 82 41 C82.66 41 83.32 41 84 41 C84 42.32 84 43.64 84 45 C83.34 45 82.68 45 82 45 C82 45.66 82 46.32 82 47 C81.34 47 80.68 47 80 47 C80 46.34 80 45.68 80 45 C74.72 45 69.44 45 64 45 C64 44.34 64 43.68 64 43 C60.7 43 57.4 43 54 43 C54 42.34 54 41.68 54 41 C51.36 41 48.72 41 46 41 C46 40.34 46 39.68 46 39 C44.02 39 42.04 39 40 39 C40 38.34 40 37.68 40 37 C38.68 37 37.36 37 36 37 C36 36.34 36 35.68 36 35 C35.34 35 34.68 35 34 35 C34 33.68 34 32.36 34 31 C33.34 31 32.68 31 32 31 C32 29.68 32 28.36 32 27 C32.66 27 33.32 27 34 27 C34 26.34 34 25.68 34 25 C37.3 25 40.6 25 44 25 C44 23.02 44 21.04 44 19 C43.34 19 42.68 19 42 19 C42 18.34 42 17.68 42 17 C38.04 17 34.08 17 30 17 C30 17.66 30 18.32 30 19 C29.34 19 28.68 19 28 19 C28 19.66 28 20.32 28 21 C27.34 21 26.68 21 26 21 C26 26.28 26 31.56 26 37 C26.66 37 27.32 37 28 37 C28 38.32 28 39.64 28 41 C28.66 41 29.32 41 30 41 C30 41.66 30 42.32 30 43 C31.32 43 32.64 43 34 43 C34 43.66 34 44.32 34 45 C36.64 45 39.28 45 42 45 C42 45.66 42 46.32 42 47 C43.98 47 45.96 47 48 47 C48 47.66 48 48.32 48 49 C48.66 49 49.32 49 50 49 C50 49.66 50 50.32 50 51 C48.02 51 46.04 51 44 51 C44 54.96 44 58.92 44 63 C44.66 63 45.32 63 46 63 C46 63.66 46 64.32 46 65 C47.32 65 48.64 65 50 65 C50 65.66 50 66.32 50 67 C53.96 67 57.92 67 62 67 C62 67.66 62 68.32 62 69 C61.34 69 60.68 69 60 69 C60 69.66 60 70.32 60 71 C59.34 71 58.68 71 58 71 C58 74.3 58 77.6 58 81 C57.34 81 56.68 81 56 81 C56 81.66 56 82.32 56 83 C54.68 83 53.36 83 52 83 C52 83.66 52 84.32 52 85 C50.02 85 48.04 85 46 85 C46 85.66 46 86.32 46 87 C44.02 87 42.04 87 40 87 C40 86.34 40 85.68 40 85 C36.7 85 33.4 85 30 85 C30 84.34 30 83.68 30 83 C28.02 83 26.04 83 24 83 C24 82.34 24 81.68 24 81 C20.04 81 16.08 81 12 81 C12 79.68 12 78.36 12 77 C12.66 77 13.32 77 14 77 C14 75.68 14 74.36 14 73 C14.66 73 15.32 73 16 73 C16 72.34 16 71.68 16 71 C16.66 71 17.32 71 18 71 C18 70.34 18 69.68 18 69 C18.66 69 19.32 69 20 69 C20 68.34 20 67.68 20 67 C20.66 67 21.32 67 22 67 C22 66.34 22 65.68 22 65 C22.66 65 23.32 65 24 65 C24 64.34 24 63.68 24 63 C25.32 63 26.64 63 28 63 C28 62.34 28 61.68 28 61 C28.66 61 29.32 61 30 61 C30 59.02 30 57.04 30 55 C27.36 55 24.72 55 22 55 C22 55.66 22 56.32 22 57 C20.68 57 19.36 57 18 57 C18 57.66 18 58.32 18 59 C17.34 59 16.68 59 16 59 C16 59.66 16 60.32 16 61 C15.34 61 14.68 61 14 61 C14 61.66 14 62.32 14 63 C13.34 63 12.68 63 12 63 C12 63.66 12 64.32 12 65 C11.34 65 10.68 65 10 65 C10 65.66 10 66.32 10 67 C9.34 67 8.68 67 8 67 C8 68.32 8 69.64 8 71 C7.34 71 6.68 71 6 71 C6 72.32 6 73.64 6 75 C5.34 75 4.68 75 4 75 C4 78.3 4 81.6 4 85 C4.66 85 5.32 85 6 85 C6 85.66 6 86.32 6 87 C7.98 87 9.96 87 12 87 C12 90.96 12 94.92 12 99 C12.66 99 13.32 99 14 99 C14 100.32 14 101.64 14 103 C14.66 103 15.32 103 16 103 C16 103.66 16 104.32 16 105 C16.66 105 17.32 105 18 105 C18 108.3 18 111.6 18 115 C17.34 115 16.68 115 16 115 C16 117.64 16 120.28 16 123 C15.34 123 14.68 123 14 123 C14 127.62 14 132.24 14 137 C14.66 137 15.32 137 16 137 C16 137.66 16 138.32 16 139 C16.66 139 17.32 139 18 139 C18 139.66 18 140.32 18 141 C18.66 141 19.32 141 20 141 C20 141.66 20 142.32 20 143 C20.66 143 21.32 143 22 143 C22 143.66 22 144.32 22 145 C23.32 145 24.64 145 26 145 C26 145.66 26 146.32 26 147 C26.66 147 27.32 147 28 147 C28 147.66 28 148.32 28 149 C28.66 149 29.32 149 30 149 C30 150.98 30 152.96 30 155 C33.96 155 37.92 155 42 155 C42 156.98 42 158.96 42 161 C43.98 161 45.96 161 48 161 C48 161.66 48 162.32 48 163 C49.32 163 50.64 163 52 163 C52 165.64 52 168.28 52 171 C52.66 171 53.32 171 54 171 C54 179.58 54 188.16 54 197 C54.66 197 55.32 197 56 197 C56 200.96 56 204.92 56 209 C56.66 209 57.32 209 58 209 C58 210.32 58 211.64 58 213 C58.66 213 59.32 213 60 213 C60 213.66 60 214.32 60 215 C60.66 215 61.32 215 62 215 C62 215.66 62 216.32 62 217 C62.66 217 63.32 217 64 217 C64 217.66 64 218.32 64 219 C64.66 219 65.32 219 66 219 C66 219.66 66 220.32 66 221 C66.66 221 67.32 221 68 221 C68 221.66 68 222.32 68 223 C68.66 223 69.32 223 70 223 C70 223.66 70 224.32 70 225 C70.66 225 71.32 225 72 225 C72 225.66 72 226.32 72 227 C72.66 227 73.32 227 74 227 C74 227.66 74 228.32 74 229 C75.32 229 76.64 229 78 229 C78 229.66 78 230.32 78 231 C79.32 231 80.64 231 82 231 C82 231.66 82 232.32 82 233 C83.32 233 84.64 233 86 233 C86 233.66 86 234.32 86 235 C86.66 235 87.32 235 88 235 C88 235.66 88 236.32 88 237 C89.32 237 90.64 237 92 237 C92 237.66 92 238.32 92 239 C93.32 239 94.64 239 96 239 C96 239.66 96 240.32 96 241 C97.32 241 98.64 241 100 241 C100 241.66 100 242.32 100 243 C101.32 243 102.64 243 104 243 C104 243.66 104 244.32 104 245 C105.32 245 106.64 245 108 245 C108 245.66 108 246.32 108 247 C108.66 247 109.32 247 110 247 C110 247.66 110 248.32 110 249 C111.32 249 112.64 249 114 249 C114 249.66 114 250.32 114 251 C114.66 251 115.32 251 116 251 C116 251.66 116 252.32 116 253 C117.32 253 118.64 253 120 253 C120 253.66 120 254.32 120 255 C121.32 255 122.64 255 124 255 C124 255.66 124 256.32 124 257 C124.66 257 125.32 257 126 257 C126 257.66 126 258.32 126 259 C126.66 259 127.32 259 128 259 C128 259.66 128 260.32 128 261 C136.58 261 145.16 261 154 261 C154 260.34 154 259.68 154 259 C155.32 259 156.64 259 158 259 C158 258.34 158 257.68 158 257 C159.98 257 161.96 257 164 257 C164 256.34 164 255.68 164 255 C165.32 255 166.64 255 168 255 C168 254.34 168 253.68 168 253 C168.66 253 169.32 253 170 253 C170 252.34 170 251.68 170 251 C171.32 251 172.64 251 174 251 C174 250.34 174 249.68 174 249 C174.66 249 175.32 249 176 249 C176 248.34 176 247.68 176 247 C177.98 247 179.96 247 182 247 C182 246.34 182 245.68 182 245 C183.32 245 184.64 245 186 245 C186 244.34 186 243.68 186 243 C186.66 243 187.32 243 188 243 C188 242.34 188 241.68 188 241 C189.32 241 190.64 241 192 241 C192 240.34 192 239.68 192 239 C193.32 239 194.64 239 196 239 C196 238.34 196 237.68 196 237 C197.32 237 198.64 237 200 237 C200 236.34 200 235.68 200 235 C201.32 235 202.64 235 204 235 C204 234.34 204 233.68 204 233 C205.32 233 206.64 233 208 233 C208 232.34 208 231.68 208 231 C208.66 231 209.32 231 210 231 C210 230.34 210 229.68 210 229 C210.66 229 211.32 229 212 229 C212 228.34 212 227.68 212 227 C212.66 227 213.32 227 214 227 C214 225.68 214 224.36 214 223 C214.66 223 215.32 223 216 223 C216 222.34 216 221.68 216 221 C216.66 221 217.32 221 218 221 C218 219.02 218 217.04 218 215 C218.66 215 219.32 215 220 215 C220 213.68 220 212.36 220 211 C220.66 211 221.32 211 222 211 C222 209.68 222 208.36 222 207 C222.66 207 223.32 207 224 207 C224 205.02 224 203.04 224 201 C224.66 201 225.32 201 226 201 C226 198.36 226 195.72 226 193 C226.66 193 227.32 193 228 193 C228 190.36 228 187.72 228 185 C228.66 185 229.32 185 230 185 C230 175.1 230 165.2 230 155 C231.98 155 233.96 155 236 155 C236 154.34 236 153.68 236 153 C238.64 153 241.28 153 244 153 C244 152.34 244 151.68 244 151 C245.32 151 246.64 151 248 151 C248 147.7 248 144.4 248 141 C248.66 141 249.32 141 250 141 C250 137.7 250 134.4 250 131 C253.3 131 256.6 131 260 131 C260 129.68 260 128.36 260 127 C261.32 127 262.64 127 264 127 C264 126.34 264 125.68 264 125 C264.66 125 265.32 125 266 125 C266 124.34 266 123.68 266 123 C266.66 123 267.32 123 268 123 C268 121.68 268 120.36 268 119 C268.66 119 269.32 119 270 119 C270 118.34 270 117.68 270 117 C270.66 117 271.32 117 272 117 C272 116.34 272 115.68 272 115 C272.66 115 273.32 115 274 115 C274 107.08 274 99.16 274 91 C273.34 91 272.68 91 272 91 C272 88.36 272 85.72 272 83 C271.34 83 270.68 83 270 83 C270 81.68 270 80.36 270 79 C269.34 79 268.68 79 268 79 C268 77.02 268 75.04 268 73 C267.34 73 266.68 73 266 73 C266 72.34 266 71.68 266 71 C265.34 71 264.68 71 264 71 C264 69.68 264 68.36 264 67 C263.34 67 262.68 67 262 67 C262 63.04 262 59.08 262 55 C261.34 55 260.68 55 260 55 C260 53.68 260 52.36 260 51 C259.34 51 258.68 51 258 51 C258 49.68 258 48.36 258 47 C257.34 47 256.68 47 256 47 C256 45.68 256 44.36 256 43 C254.68 43 253.36 43 252 43 C252 42.34 252 41.68 252 41 C251.34 41 250.68 41 250 41 C250 39.68 250 38.36 250 37 C248.02 37 246.04 37 244 37 C244 36.34 244 35.68 244 35 C243.34 35 242.68 35 242 35 C242 34.34 242 33.68 242 33 C240.68 33 239.36 33 238 33 C238 32.34 238 31.68 238 31 C236.02 31 234.04 31 232 31 C232 29.68 232 28.36 232 27 C231.34 27 230.68 27 230 27 C230 26.34 230 25.68 230 25 C229.34 25 228.68 25 228 25 C228 24.34 228 23.68 228 23 C227.34 23 226.68 23 226 23 C226 21.68 226 20.36 226 19 C225.34 19 224.68 19 224 19 C224 17.68 224 16.36 224 15 C223.34 15 222.68 15 222 15 C222 14.34 222 13.68 222 13 C220.68 13 219.36 13 218 13 C218 12.34 218 11.68 218 11 C216.68 11 215.36 11 214 11 C214 10.34 214 9.68 214 9 C210.04 9 206.08 9 202 9 C202 9.66 202 10.32 202 11 C198.7 11 195.4 11 192 11 C192 10.34 192 9.68 192 9 C188.04 9 184.08 9 180 9 C180 8.34 180 7.68 180 7 C176.7 7 173.4 7 170 7 C170 6.34 170 5.68 170 5 C163.4 5 156.8 5 150 5 Z " fill="#FFFFFF" transform="translate(0,0)"/>
<path d="M0 0 C3.3 0 6.6 0 10 0 C10 0.66 10 1.32 10 2 C10.66 2 11.32 2 12 2 C12 2.66 12 3.32 12 4 C12.66 4 13.32 4 14 4 C14 5.98 14 7.96 14 10 C14.66 10 15.32 10 16 10 C16 10.66 16 11.32 16 12 C17.98 12 19.96 12 22 12 C22 21.9 22 31.8 22 42 C23.32 42 24.64 42 26 42 C26 42.66 26 43.32 26 44 C27.32 44 28.64 44 30 44 C30 44.66 30 45.32 30 46 C31.32 46 32.64 46 34 46 C34 46.66 34 47.32 34 48 C35.98 48 37.96 48 40 48 C40 48.66 40 49.32 40 50 C42.64 50 45.28 50 48 50 C48 50.66 48 51.32 48 52 C57.24 52 66.48 52 76 52 C76 51.34 76 50.68 76 50 C78.64 50 81.28 50 84 50 C84 49.34 84 48.68 84 48 C85.32 48 86.64 48 88 48 C88 55.26 88 62.52 88 70 C87.34 70 86.68 70 86 70 C86 72.64 86 75.28 86 78 C85.34 78 84.68 78 84 78 C84 80.64 84 83.28 84 86 C83.34 86 82.68 86 82 86 C82 87.98 82 89.96 82 92 C81.34 92 80.68 92 80 92 C80 93.32 80 94.64 80 96 C79.34 96 78.68 96 78 96 C78 97.32 78 98.64 78 100 C77.34 100 76.68 100 76 100 C76 101.98 76 103.96 76 106 C75.34 106 74.68 106 74 106 C74 106.66 74 107.32 74 108 C73.34 108 72.68 108 72 108 C72 109.32 72 110.64 72 112 C71.34 112 70.68 112 70 112 C70 112.66 70 113.32 70 114 C69.34 114 68.68 114 68 114 C68 114.66 68 115.32 68 116 C67.34 116 66.68 116 66 116 C66 116.66 66 117.32 66 118 C64.68 118 63.36 118 62 118 C62 118.66 62 119.32 62 120 C60.68 120 59.36 120 58 120 C58 120.66 58 121.32 58 122 C56.68 122 55.36 122 54 122 C54 122.66 54 123.32 54 124 C52.68 124 51.36 124 50 124 C50 124.66 50 125.32 50 126 C49.34 126 48.68 126 48 126 C48 126.66 48 127.32 48 128 C46.68 128 45.36 128 44 128 C44 128.66 44 129.32 44 130 C42.68 130 41.36 130 40 130 C40 130.66 40 131.32 40 132 C38.68 132 37.36 132 36 132 C36 132.66 36 133.32 36 134 C34.68 134 33.36 134 32 134 C32 134.66 32 135.32 32 136 C30.68 136 29.36 136 28 136 C28 136.66 28 137.32 28 138 C27.34 138 26.68 138 26 138 C26 138.66 26 139.32 26 140 C24.68 140 23.36 140 22 140 C22 140.66 22 141.32 22 142 C20.02 142 18.04 142 16 142 C16 142.66 16 143.32 16 144 C14.68 144 13.36 144 12 144 C12 144.66 12 145.32 12 146 C7.38 146 2.76 146 -2 146 C-2 145.34 -2 144.68 -2 144 C-2.66 144 -3.32 144 -4 144 C-4 143.34 -4 142.68 -4 142 C-4.66 142 -5.32 142 -6 142 C-6 141.34 -6 140.68 -6 140 C-7.32 140 -8.64 140 -10 140 C-10 139.34 -10 138.68 -10 138 C-11.32 138 -12.64 138 -14 138 C-14 137.34 -14 136.68 -14 136 C-14.66 136 -15.32 136 -16 136 C-16 135.34 -16 134.68 -16 134 C-17.32 134 -18.64 134 -20 134 C-20 133.34 -20 132.68 -20 132 C-20.66 132 -21.32 132 -22 132 C-22 131.34 -22 130.68 -22 130 C-23.32 130 -24.64 130 -26 130 C-26 129.34 -26 128.68 -26 128 C-27.32 128 -28.64 128 -30 128 C-30 127.34 -30 126.68 -30 126 C-31.32 126 -32.64 126 -34 126 C-34 125.34 -34 124.68 -34 124 C-35.32 124 -36.64 124 -38 124 C-38 123.34 -38 122.68 -38 122 C-39.32 122 -40.64 122 -42 122 C-42 121.34 -42 120.68 -42 120 C-42.66 120 -43.32 120 -44 120 C-44 119.34 -44 118.68 -44 118 C-45.32 118 -46.64 118 -48 118 C-48 117.34 -48 116.68 -48 116 C-49.32 116 -50.64 116 -52 116 C-52 115.34 -52 114.68 -52 114 C-53.32 114 -54.64 114 -56 114 C-56 113.34 -56 112.68 -56 112 C-56.66 112 -57.32 112 -58 112 C-58 111.34 -58 110.68 -58 110 C-58.66 110 -59.32 110 -60 110 C-60 109.34 -60 108.68 -60 108 C-60.66 108 -61.32 108 -62 108 C-62 107.34 -62 106.68 -62 106 C-62.66 106 -63.32 106 -64 106 C-64 105.34 -64 104.68 -64 104 C-64.66 104 -65.32 104 -66 104 C-66 103.34 -66 102.68 -66 102 C-66.66 102 -67.32 102 -68 102 C-68 101.34 -68 100.68 -68 100 C-68.66 100 -69.32 100 -70 100 C-70 99.34 -70 98.68 -70 98 C-70.66 98 -71.32 98 -72 98 C-72 96.68 -72 95.36 -72 94 C-72.66 94 -73.32 94 -74 94 C-74 90.04 -74 86.08 -74 82 C-74.66 82 -75.32 82 -76 82 C-76 73.42 -76 64.84 -76 56 C-68.08 56 -60.16 56 -52 56 C-52 55.34 -52 54.68 -52 54 C-49.36 54 -46.72 54 -44 54 C-44 53.34 -44 52.68 -44 52 C-41.36 52 -38.72 52 -36 52 C-36 51.34 -36 50.68 -36 50 C-33.36 50 -30.72 50 -28 50 C-28 49.34 -28 48.68 -28 48 C-25.36 48 -22.72 48 -20 48 C-20 47.34 -20 46.68 -20 46 C-18.68 46 -17.36 46 -16 46 C-16 42.7 -16 39.4 -16 36 C-15.34 36 -14.68 36 -14 36 C-14 32.7 -14 29.4 -14 26 C-13.34 26 -12.68 26 -12 26 C-12 20.72 -12 15.44 -12 10 C-10.68 10 -9.36 10 -8 10 C-8 8.68 -8 7.36 -8 6 C-7.34 6 -6.68 6 -6 6 C-6 5.34 -6 4.68 -6 4 C-5.34 4 -4.68 4 -4 4 C-4 3.34 -4 2.68 -4 2 C-2.68 2 -1.36 2 0 2 C0 1.34 0 0.68 0 0 Z " fill="#FFFFFF" transform="translate(136,109)"/>
<path d="M0 0 C6.6 0 13.2 0 20 0 C20 0.66 20 1.32 20 2 C23.3 2 26.6 2 30 2 C30 2.66 30 3.32 30 4 C31.98 4 33.96 4 36 4 C36 4.66 36 5.32 36 6 C37.32 6 38.64 6 40 6 C40 6.66 40 7.32 40 8 C40.66 8 41.32 8 42 8 C42 17.24 42 26.48 42 36 C41.34 36 40.68 36 40 36 C40 39.3 40 42.6 40 46 C39.34 46 38.68 46 38 46 C38 49.3 38 52.6 38 56 C36.68 56 35.36 56 34 56 C34 56.66 34 57.32 34 58 C31.36 58 28.72 58 26 58 C26 58.66 26 59.32 26 60 C23.36 60 20.72 60 18 60 C18 60.66 18 61.32 18 62 C15.36 62 12.72 62 10 62 C10 62.66 10 63.32 10 64 C7.36 64 4.72 64 2 64 C2 64.66 2 65.32 2 66 C-3.28 66 -8.56 66 -14 66 C-14 65.34 -14 64.68 -14 64 C-16.64 64 -19.28 64 -22 64 C-22 63.34 -22 62.68 -22 62 C-23.98 62 -25.96 62 -28 62 C-28 61.34 -28 60.68 -28 60 C-29.32 60 -30.64 60 -32 60 C-32 59.34 -32 58.68 -32 58 C-33.32 58 -34.64 58 -36 58 C-36 57.34 -36 56.68 -36 56 C-37.32 56 -38.64 56 -40 56 C-40 41.48 -40 26.96 -40 12 C-38.68 12 -37.36 12 -36 12 C-36 11.34 -36 10.68 -36 10 C-35.34 10 -34.68 10 -34 10 C-34 9.34 -34 8.68 -34 8 C-32.02 8 -30.04 8 -28 8 C-28 7.34 -28 6.68 -28 6 C-26.02 6 -24.04 6 -22 6 C-22 5.34 -22 4.68 -22 4 C-19.36 4 -16.72 4 -14 4 C-14 3.34 -14 2.68 -14 2 C-9.38 2 -4.76 2 0 2 C0 1.34 0 0.68 0 0 Z " fill="#FFFFFF" transform="translate(204,89)"/>
<path d="M0 0 C6.6 0 13.2 0 20 0 C20 0.66 20 1.32 20 2 C23.3 2 26.6 2 30 2 C30 2.66 30 3.32 30 4 C31.98 4 33.96 4 36 4 C36 4.66 36 5.32 36 6 C37.32 6 38.64 6 40 6 C40 6.66 40 7.32 40 8 C40.66 8 41.32 8 42 8 C42 17.24 42 26.48 42 36 C41.34 36 40.68 36 40 36 C40 39.3 40 42.6 40 46 C39.34 46 38.68 46 38 46 C38 49.3 38 52.6 38 56 C36.68 56 35.36 56 34 56 C34 56.66 34 57.32 34 58 C31.36 58 28.72 58 26 58 C26 58.66 26 59.32 26 60 C23.36 60 20.72 60 18 60 C18 60.66 18 61.32 18 62 C15.36 62 12.72 62 10 62 C10 62.66 10 63.32 10 64 C7.36 64 4.72 64 2 64 C2 64.66 2 65.32 2 66 C-3.28 66 -8.56 66 -14 66 C-14 65.34 -14 64.68 -14 64 C-16.64 64 -19.28 64 -22 64 C-22 63.34 -22 62.68 -22 62 C-23.98 62 -25.96 62 -28 62 C-28 61.34 -28 60.68 -28 60 C-29.32 60 -30.64 60 -32 60 C-32 59.34 -32 58.68 -32 58 C-33.32 58 -34.64 58 -36 58 C-36 56.02 -36 54.04 -36 52 C-36.66 52 -37.32 52 -38 52 C-38 51.34 -38 50.68 -38 50 C-38.66 50 -39.32 50 -40 50 C-40 37.46 -40 24.92 -40 12 C-38.68 12 -37.36 12 -36 12 C-36 11.34 -36 10.68 -36 10 C-35.34 10 -34.68 10 -34 10 C-34 9.34 -34 8.68 -34 8 C-32.02 8 -30.04 8 -28 8 C-28 7.34 -28 6.68 -28 6 C-26.02 6 -24.04 6 -22 6 C-22 5.34 -22 4.68 -22 4 C-19.36 4 -16.72 4 -14 4 C-14 3.34 -14 2.68 -14 2 C-9.38 2 -4.76 2 0 2 C0 1.34 0 0.68 0 0 Z " fill="#FFFFFF" transform="translate(76,93)"/>
<path d="M0 0 C2.64 0 5.28 0 8 0 C8 0.66 8 1.32 8 2 C11.96 2 15.92 2 20 2 C20 2.66 20 3.32 20 4 C23.96 4 27.92 4 32 4 C32 4.66 32 5.32 32 6 C39.92 6 47.84 6 56 6 C56 6.66 56 7.32 56 8 C57.32 8 58.64 8 60 8 C60 8.66 60 9.32 60 10 C60.66 10 61.32 10 62 10 C62 11.32 62 12.64 62 14 C62.66 14 63.32 14 64 14 C64 15.32 64 16.64 64 18 C64.66 18 65.32 18 66 18 C66 18.66 66 19.32 66 20 C66.66 20 67.32 20 68 20 C68 20.66 68 21.32 68 22 C68.66 22 69.32 22 70 22 C70 22.66 70 23.32 70 24 C70.66 24 71.32 24 72 24 C72 25.98 72 27.96 72 30 C72.66 30 73.32 30 74 30 C74 30.66 74 31.32 74 32 C74.66 32 75.32 32 76 32 C76 33.98 76 35.96 76 38 C76.66 38 77.32 38 78 38 C78 40.64 78 43.28 78 46 C78.66 46 79.32 46 80 46 C80 47.32 80 48.64 80 50 C78.68 50 77.36 50 76 50 C76 50.66 76 51.32 76 52 C74.02 52 72.04 52 70 52 C70 52.66 70 53.32 70 54 C68.02 54 66.04 54 64 54 C64 53.34 64 52.68 64 52 C62.68 52 61.36 52 60 52 C60 51.34 60 50.68 60 50 C59.34 50 58.68 50 58 50 C58 49.34 58 48.68 58 48 C55.36 48 52.72 48 50 48 C50 49.98 50 51.96 50 54 C50.66 54 51.32 54 52 54 C52 54.66 52 55.32 52 56 C52.66 56 53.32 56 54 56 C54 56.66 54 57.32 54 58 C55.32 58 56.64 58 58 58 C58 58.66 58 59.32 58 60 C63.94 60 69.88 60 76 60 C76 59.34 76 58.68 76 58 C77.98 58 79.96 58 82 58 C82 57.34 82 56.68 82 56 C83.32 56 84.64 56 86 56 C86 50.72 86 45.44 86 40 C85.34 40 84.68 40 84 40 C84 37.36 84 34.72 84 32 C85.32 32 86.64 32 88 32 C88 33.32 88 34.64 88 36 C89.32 36 90.64 36 92 36 C92 36.66 92 37.32 92 38 C92.66 38 93.32 38 94 38 C94 39.32 94 40.64 94 42 C94.66 42 95.32 42 96 42 C96 42.66 96 43.32 96 44 C96.66 44 97.32 44 98 44 C98 45.98 98 47.96 98 50 C98.66 50 99.32 50 100 50 C100 53.96 100 57.92 100 62 C98.68 62 97.36 62 96 62 C96 62.66 96 63.32 96 64 C94.68 64 93.36 64 92 64 C92 64.66 92 65.32 92 66 C90.68 66 89.36 66 88 66 C88 66.66 88 67.32 88 68 C80.08 68 72.16 68 64 68 C64 67.34 64 66.68 64 66 C56.08 66 48.16 66 40 66 C40 65.34 40 64.68 40 64 C36.04 64 32.08 64 28 64 C28 63.34 28 62.68 28 62 C24.04 62 20.08 62 16 62 C16 61.34 16 60.68 16 60 C14.68 60 13.36 60 12 60 C12 58.02 12 56.04 12 54 C12.66 54 13.32 54 14 54 C14 52.68 14 51.36 14 50 C14.66 50 15.32 50 16 50 C16 49.34 16 48.68 16 48 C16.66 48 17.32 48 18 48 C18 46.68 18 45.36 18 44 C18.66 44 19.32 44 20 44 C20 43.34 20 42.68 20 42 C20.66 42 21.32 42 22 42 C22 40.68 22 39.36 22 38 C22.66 38 23.32 38 24 38 C24 36.02 24 34.04 24 32 C22.02 32 20.04 32 18 32 C18 32.66 18 33.32 18 34 C17.34 34 16.68 34 16 34 C16 34.66 16 35.32 16 36 C15.34 36 14.68 36 14 36 C14 36.66 14 37.32 14 38 C13.34 38 12.68 38 12 38 C12 39.32 12 40.64 12 42 C11.34 42 10.68 42 10 42 C10 42.66 10 43.32 10 44 C9.34 44 8.68 44 8 44 C8 43.34 8 42.68 8 42 C7.34 42 6.68 42 6 42 C6 41.34 6 40.68 6 40 C5.34 40 4.68 40 4 40 C4 38.68 4 37.36 4 36 C3.34 36 2.68 36 2 36 C2 35.34 2 34.68 2 34 C0.68 34 -0.64 34 -2 34 C-2 33.34 -2 32.68 -2 32 C-3.32 32 -4.64 32 -6 32 C-6 31.34 -6 30.68 -6 30 C-7.32 30 -8.64 30 -10 30 C-10 29.34 -10 28.68 -10 28 C-10.66 28 -11.32 28 -12 28 C-12 26.02 -12 24.04 -12 22 C-11.34 22 -10.68 22 -10 22 C-10 21.34 -10 20.68 -10 20 C-9.34 20 -8.68 20 -8 20 C-8 19.34 -8 18.68 -8 18 C-7.34 18 -6.68 18 -6 18 C-6 18.66 -6 19.32 -6 20 C-5.34 20 -4.68 20 -4 20 C-4 20.66 -4 21.32 -4 22 C-2.68 22 -1.36 22 0 22 C0 22.66 0 23.32 0 24 C1.98 24 3.96 24 6 24 C6 24.66 6 25.32 6 26 C7.98 26 9.96 26 12 26 C12 26.66 12 27.32 12 28 C13.98 28 15.96 28 18 28 C18 28.66 18 29.32 18 30 C20.64 30 23.28 30 26 30 C26 30.66 26 31.32 26 32 C28.64 32 31.28 32 34 32 C34 32.66 34 33.32 34 34 C35.98 34 37.96 34 40 34 C40 34.66 40 35.32 40 36 C43.3 36 46.6 36 50 36 C50 34.02 50 32.04 50 30 C48.68 30 47.36 30 46 30 C46 29.34 46 28.68 46 28 C43.36 28 40.72 28 38 28 C38 27.34 38 26.68 38 26 C36.02 26 34.04 26 32 26 C32 25.34 32 24.68 32 24 C29.36 24 26.72 24 24 24 C24 23.34 24 22.68 24 22 C21.36 22 18.72 22 16 22 C16 21.34 16 20.68 16 20 C14.02 20 12.04 20 10 20 C10 19.34 10 18.68 10 18 C8.68 18 7.36 18 6 18 C6 17.34 6 16.68 6 16 C4.68 16 3.36 16 2 16 C2 15.34 2 14.68 2 14 C1.34 14 0.68 14 0 14 C0 10.7 0 7.4 0 4 C-0.66 4 -1.32 4 -2 4 C-2 3.34 -2 2.68 -2 2 C-1.34 2 -0.68 2 0 2 C0 1.34 0 0.68 0 0 Z " fill="#FFFFFF" transform="translate(156,11)"/>
<path d="M0 0 C1.32 0 2.64 0 4 0 C4 6.6 4 13.2 4 20 C4.66 20 5.32 20 6 20 C6 20.66 6 21.32 6 22 C6.66 22 7.32 22 8 22 C8 22.66 8 23.32 8 24 C9.98 24 11.96 24 14 24 C14 24.66 14 25.32 14 26 C17.96 26 21.92 26 26 26 C26 26.66 26 27.32 26 28 C32.6 28 39.2 28 46 28 C46 27.34 46 26.68 46 26 C48.64 26 51.28 26 54 26 C54 25.34 54 24.68 54 24 C57.3 24 60.6 24 64 24 C64 23.34 64 22.68 64 22 C65.32 22 66.64 22 68 22 C68 22.66 68 23.32 68 24 C75.26 24 82.52 24 90 24 C90 24.66 90 25.32 90 26 C93.3 26 96.6 26 100 26 C100 26.66 100 27.32 100 28 C103.96 28 107.92 28 112 28 C112 28.66 112 29.32 112 30 C114.64 30 117.28 30 120 30 C120 30.66 120 31.32 120 32 C115.38 32 110.76 32 106 32 C106 32.66 106 33.32 106 34 C103.36 34 100.72 34 98 34 C98 34.66 98 35.32 98 36 C96.02 36 94.04 36 92 36 C92 36.66 92 37.32 92 38 C90.02 38 88.04 38 86 38 C86 38.66 86 39.32 86 40 C85.34 40 84.68 40 84 40 C84 40.66 84 41.32 84 42 C82.68 42 81.36 42 80 42 C80 46.62 80 51.24 80 56 C79.34 56 78.68 56 78 56 C78 55.34 78 54.68 78 54 C77.34 54 76.68 54 76 54 C76 53.34 76 52.68 76 52 C75.34 52 74.68 52 74 52 C74 51.34 74 50.68 74 50 C66.74 50 59.48 50 52 50 C52 50.66 52 51.32 52 52 C50.68 52 49.36 52 48 52 C48 52.66 48 53.32 48 54 C47.34 54 46.68 54 46 54 C46 50.04 46 46.08 46 42 C45.34 42 44.68 42 44 42 C44 41.34 44 40.68 44 40 C42.68 40 41.36 40 40 40 C40 39.34 40 38.68 40 38 C38.02 38 36.04 38 34 38 C34 37.34 34 36.68 34 36 C30.7 36 27.4 36 24 36 C24 35.34 24 34.68 24 34 C13.44 34 2.88 34 -8 34 C-8 34.66 -8 35.32 -8 36 C-10.64 36 -13.28 36 -16 36 C-16 35.34 -16 34.68 -16 34 C-15.34 34 -14.68 34 -14 34 C-14 30.7 -14 27.4 -14 24 C-13.34 24 -12.68 24 -12 24 C-12 23.34 -12 22.68 -12 22 C-11.34 22 -10.68 22 -10 22 C-10 21.34 -10 20.68 -10 20 C-9.34 20 -8.68 20 -8 20 C-8 19.34 -8 18.68 -8 18 C-7.34 18 -6.68 18 -6 18 C-6 17.34 -6 16.68 -6 16 C-5.34 16 -4.68 16 -4 16 C-4 15.34 -4 14.68 -4 14 C-3.34 14 -2.68 14 -2 14 C-2 12.68 -2 11.36 -2 10 C-1.34 10 -0.68 10 0 10 C0 6.7 0 3.4 0 0 Z " fill="#FFFFFF" transform="translate(78,53)"/>
<path d="M0 0 C0.66 0 1.32 0 2 0 C2 0.66 2 1.32 2 2 C2.66 2 3.32 2 4 2 C4 2.66 4 3.32 4 4 C5.32 4 6.64 4 8 4 C8 4.66 8 5.32 8 6 C8.66 6 9.32 6 10 6 C10 6.66 10 7.32 10 8 C10.66 8 11.32 8 12 8 C12 9.32 12 10.64 12 12 C12.66 12 13.32 12 14 12 C14 13.32 14 14.64 14 16 C14.66 16 15.32 16 16 16 C16 17.32 16 18.64 16 20 C15.34 20 14.68 20 14 20 C14 21.32 14 22.64 14 24 C12.02 24 10.04 24 8 24 C8 23.34 8 22.68 8 22 C2.72 22 -2.56 22 -8 22 C-8 22.66 -8 23.32 -8 24 C-11.3 24 -14.6 24 -18 24 C-18 24.66 -18 25.32 -18 26 C-20.64 26 -23.28 26 -26 26 C-26 26.66 -26 27.32 -26 28 C-28.64 28 -31.28 28 -34 28 C-34 27.34 -34 26.68 -34 26 C-38.62 26 -43.24 26 -48 26 C-48 25.34 -48 24.68 -48 24 C-49.32 24 -50.64 24 -52 24 C-52 23.34 -52 22.68 -52 22 C-52.66 22 -53.32 22 -54 22 C-54 21.34 -54 20.68 -54 20 C-54.66 20 -55.32 20 -56 20 C-56 15.38 -56 10.76 -56 6 C-46.76 6 -37.52 6 -28 6 C-28 5.34 -28 4.68 -28 4 C-18.76 4 -9.52 4 0 4 C0 2.68 0 1.36 0 0 Z " fill="#FFFFFF" transform="translate(144,47)"/>
<path d="M0 0 C13.2 0 26.4 0 40 0 C40 0.66 40 1.32 40 2 C39.34 2 38.68 2 38 2 C38 2.66 38 3.32 38 4 C37.34 4 36.68 4 36 4 C36 4.66 36 5.32 36 6 C35.34 6 34.68 6 34 6 C34 6.66 34 7.32 34 8 C33.34 8 32.68 8 32 8 C32 9.98 32 11.96 32 14 C31.34 14 30.68 14 30 14 C30 15.32 30 16.64 30 18 C26.7 18 23.4 18 20 18 C20 18.66 20 19.32 20 20 C18.02 20 16.04 20 14 20 C14 21.98 14 23.96 14 26 C11.36 26 8.72 26 6 26 C6 26.66 6 27.32 6 28 C-1.26 28 -8.52 28 -16 28 C-16 27.34 -16 26.68 -16 26 C-15.34 26 -14.68 26 -14 26 C-14 24.68 -14 23.36 -14 22 C-13.34 22 -12.68 22 -12 22 C-12 17.38 -12 12.76 -12 8 C-13.98 8 -15.96 8 -18 8 C-18 8.66 -18 9.32 -18 10 C-18.66 10 -19.32 10 -20 10 C-20 11.32 -20 12.64 -20 14 C-20.66 14 -21.32 14 -22 14 C-22 13.34 -22 12.68 -22 12 C-22.66 12 -23.32 12 -24 12 C-24 11.34 -24 10.68 -24 10 C-24.66 10 -25.32 10 -26 10 C-26 9.34 -26 8.68 -26 8 C-26.66 8 -27.32 8 -28 8 C-28 6.68 -28 5.36 -28 4 C-27.34 4 -26.68 4 -26 4 C-26 3.34 -26 2.68 -26 2 C-17.42 2 -8.84 2 0 2 C0 1.34 0 0.68 0 0 Z " fill="#FFFFFF" transform="translate(106,19)"/>
<path d="M0 0 C1.98 0 3.96 0 6 0 C6 2.64 6 5.28 6 8 C5.34 8 4.68 8 4 8 C4 9.32 4 10.64 4 12 C3.34 12 2.68 12 2 12 C2 12.66 2 13.32 2 14 C1.34 14 0.68 14 0 14 C0 14.66 0 15.32 0 16 C-0.66 16 -1.32 16 -2 16 C-2 16.66 -2 17.32 -2 18 C-3.32 18 -4.64 18 -6 18 C-6 18.66 -6 19.32 -6 20 C-6.66 20 -7.32 20 -8 20 C-8 20.66 -8 21.32 -8 22 C-9.32 22 -10.64 22 -12 22 C-12 22.66 -12 23.32 -12 24 C-12.66 24 -13.32 24 -14 24 C-14 24.66 -14 25.32 -14 26 C-15.32 26 -16.64 26 -18 26 C-18 26.66 -18 27.32 -18 28 C-19.32 28 -20.64 28 -22 28 C-22 28.66 -22 29.32 -22 30 C-23.32 30 -24.64 30 -26 30 C-26 30.66 -26 31.32 -26 32 C-27.32 32 -28.64 32 -30 32 C-30 32.66 -30 33.32 -30 34 C-31.98 34 -33.96 34 -36 34 C-36 34.66 -36 35.32 -36 36 C-37.98 36 -39.96 36 -42 36 C-42 36.66 -42 37.32 -42 38 C-52.56 38 -63.12 38 -74 38 C-74 36.02 -74 34.04 -74 32 C-65.42 32 -56.84 32 -48 32 C-48 31.34 -48 30.68 -48 30 C-46.02 30 -44.04 30 -42 30 C-42 29.34 -42 28.68 -42 28 C-40.02 28 -38.04 28 -36 28 C-36 27.34 -36 26.68 -36 26 C-34.68 26 -33.36 26 -32 26 C-32 25.34 -32 24.68 -32 24 C-30.68 24 -29.36 24 -28 24 C-28 23.34 -28 22.68 -28 22 C-26.68 22 -25.36 22 -24 22 C-24 21.34 -24 20.68 -24 20 C-22.68 20 -21.36 20 -20 20 C-20 19.34 -20 18.68 -20 18 C-19.34 18 -18.68 18 -18 18 C-18 17.34 -18 16.68 -18 16 C-16.68 16 -15.36 16 -14 16 C-14 15.34 -14 14.68 -14 14 C-12.68 14 -11.36 14 -10 14 C-10 13.34 -10 12.68 -10 12 C-9.34 12 -8.68 12 -8 12 C-8 11.34 -8 10.68 -8 10 C-7.34 10 -6.68 10 -6 10 C-6 9.34 -6 8.68 -6 8 C-5.34 8 -4.68 8 -4 8 C-4 7.34 -4 6.68 -4 6 C-3.34 6 -2.68 6 -2 6 C-2 4.68 -2 3.36 -2 2 C-1.34 2 -0.68 2 0 2 C0 1.34 0 0.68 0 0 Z " fill="#000000" transform="translate(184,175)"/>
<path d="M0 0 C7.26 0 14.52 0 22 0 C22 0.66 22 1.32 22 2 C23.32 2 24.64 2 26 2 C26 2.66 26 3.32 26 4 C26.66 4 27.32 4 28 4 C28 5.98 28 7.96 28 10 C27.34 10 26.68 10 26 10 C26 12.64 26 15.28 26 18 C18.74 18 11.48 18 4 18 C4 17.34 4 16.68 4 16 C3.34 16 2.68 16 2 16 C2 15.34 2 14.68 2 14 C1.34 14 0.68 14 0 14 C0 9.38 0 4.76 0 0 Z " fill="#000000" transform="translate(176,113)"/>
<path d="M0 0 C5.94 0 11.88 0 18 0 C18 4.62 18 9.24 18 14 C17.34 14 16.68 14 16 14 C16 15.32 16 16.64 16 18 C10.06 18 4.12 18 -2 18 C-2 17.34 -2 16.68 -2 16 C-2.66 16 -3.32 16 -4 16 C-4 15.34 -4 14.68 -4 14 C-5.32 14 -6.64 14 -8 14 C-8 10.7 -8 7.4 -8 4 C-7.34 4 -6.68 4 -6 4 C-6 3.34 -6 2.68 -6 2 C-4.02 2 -2.04 2 0 2 C0 1.34 0 0.68 0 0 Z " fill="#000000" transform="translate(84,117)"/>
<path d="M0 0 C1.98 0 3.96 0 6 0 C6 0.66 6 1.32 6 2 C9.3 2 12.6 2 16 2 C16 2.66 16 3.32 16 4 C18.64 4 21.28 4 24 4 C24 4.66 24 5.32 24 6 C22.02 6 20.04 6 18 6 C18 6.66 18 7.32 18 8 C17.34 8 16.68 8 16 8 C16 8.66 16 9.32 16 10 C14.68 10 13.36 10 12 10 C12 23.2 12 36.4 12 50 C11.34 50 10.68 50 10 50 C10 49.34 10 48.68 10 48 C9.34 48 8.68 48 8 48 C8 47.34 8 46.68 8 46 C7.34 46 6.68 46 6 46 C6 45.34 6 44.68 6 44 C5.34 44 4.68 44 4 44 C4 43.34 4 42.68 4 42 C3.34 42 2.68 42 2 42 C2 41.34 2 40.68 2 40 C2.66 40 3.32 40 4 40 C4 37.36 4 34.72 4 32 C4.66 32 5.32 32 6 32 C6 24.74 6 17.48 6 10 C5.34 10 4.68 10 4 10 C4 9.34 4 8.68 4 8 C3.34 8 2.68 8 2 8 C2 6.68 2 5.36 2 4 C1.34 4 0.68 4 0 4 C0 2.68 0 1.36 0 0 Z " fill="#FFFFFF" transform="translate(18,89)"/>
<path d="M0 0 C1.32 0 2.64 0 4 0 C4 1.98 4 3.96 4 6 C4.66 6 5.32 6 6 6 C6 7.32 6 8.64 6 10 C6.66 10 7.32 10 8 10 C8 12.64 8 15.28 8 18 C8.66 18 9.32 18 10 18 C10 21.96 10 25.92 10 30 C8.68 30 7.36 30 6 30 C6 31.32 6 32.64 6 34 C5.34 34 4.68 34 4 34 C4 34.66 4 35.32 4 36 C3.34 36 2.68 36 2 36 C2 36.66 2 37.32 2 38 C0.68 38 -0.64 38 -2 38 C-2 39.32 -2 40.64 -2 42 C-2.66 42 -3.32 42 -4 42 C-4 43.32 -4 44.64 -4 46 C-4.66 46 -5.32 46 -6 46 C-6 38.08 -6 30.16 -6 22 C-5.34 22 -4.68 22 -4 22 C-4 22.66 -4 23.32 -4 24 C-2.68 24 -1.36 24 0 24 C0 24.66 0 25.32 0 26 C0.66 26 1.32 26 2 26 C2 26.66 2 27.32 2 28 C3.32 28 4.64 28 6 28 C6 24.7 6 21.4 6 18 C4.68 18 3.36 18 2 18 C2 17.34 2 16.68 2 16 C0.68 16 -0.64 16 -2 16 C-2 12.04 -2 8.08 -2 4 C-2.66 4 -3.32 4 -4 4 C-4 3.34 -4 2.68 -4 2 C-2.68 2 -1.36 2 0 2 C0 1.34 0 0.68 0 0 Z " fill="#FFFFFF" transform="translate(258,79)"/>
<path d="M0 0 C3.3 0 6.6 0 10 0 C10 0.66 10 1.32 10 2 C11.32 2 12.64 2 14 2 C14 3.32 14 4.64 14 6 C13.34 6 12.68 6 12 6 C12 6.66 12 7.32 12 8 C11.34 8 10.68 8 10 8 C10 8.66 10 9.32 10 10 C9.34 10 8.68 10 8 10 C8 10.66 8 11.32 8 12 C7.34 12 6.68 12 6 12 C6 10.68 6 9.36 6 8 C3.36 8 0.72 8 -2 8 C-2 7.34 -2 6.68 -2 6 C-3.32 6 -4.64 6 -6 6 C-6 5.34 -6 4.68 -6 4 C-4.68 4 -3.36 4 -2 4 C-2 3.34 -2 2.68 -2 2 C-1.34 2 -0.68 2 0 2 C0 1.34 0 0.68 0 0 Z " fill="#FFFFFF" transform="translate(58,53)"/>
<path d="M0 0 C3.3 0 6.6 0 10 0 C10 1.32 10 2.64 10 4 C8.68 4 7.36 4 6 4 C6 3.34 6 2.68 6 2 C4.02 2 2.04 2 0 2 C0 1.34 0 0.68 0 0 Z " fill="#FFFFFF" transform="translate(240,85)"/>
</svg>
