<svg width="48" height="52" viewBox="0 0 48 52" fill="none" xmlns="http://www.w3.org/2000/svg">
<path d="M48 26C48 39.2548 37.2548 50 24 50C10.7452 50 0 39.2548 0 26C0 12.7452 10.7452 2 24 2C37.2548 2 48 12.7452 48 26Z" fill="black" fill-opacity="0.96"/>
<path d="M14.853 47.2598C12.5113 46.6034 10.472 45.5221 8.73515 44.0161C6.99829 42.5102 5.75125 40.6984 4.99405 38.5809C4.71721 37.7057 4.68086 36.9201 4.88501 36.2241C5.18522 35.2006 5.82769 34.4502 6.81241 33.973C7.83822 33.5073 8.74141 33.3839 9.52198 33.6027C10.1382 33.7755 10.6799 34.1267 11.147 34.6564C11.6551 35.1977 12.0837 35.783 12.4326 36.4125C13.0381 37.3798 13.6831 38.1366 14.3676 38.683C15.1052 39.1999 15.9875 39.6023 17.0146 39.8903C18.2471 40.2358 19.4875 40.2512 20.7358 39.9365C21.984 39.6218 23.087 39.0448 24.0445 38.2055C25.002 37.3662 25.6549 36.3529 26.0032 35.1656L33.5686 9.37224C33.8808 8.30775 34.5293 7.53691 35.514 7.05971C36.5107 6.54158 37.5226 6.42647 38.5497 6.71439C39.7 7.03686 40.5163 7.66446 40.9986 8.5972C41.4928 9.489 41.5839 10.4671 41.2716 11.5316L33.7062 37.325C32.9737 39.8225 31.6379 41.9514 29.6988 43.7119C27.7597 45.4723 25.4888 46.6967 22.886 47.3849C20.2833 48.0731 17.6056 48.0314 14.853 47.2598Z" fill="white"/>
</svg>
