<svg width="48" height="52" viewBox="0 0 48 52" fill="none" xmlns="http://www.w3.org/2000/svg">
<path d="M48 26C48 39.2548 37.2548 50 24 50C10.7452 50 0 39.2548 0 26C0 12.7452 10.7452 2 24 2C37.2548 2 48 12.7452 48 26Z" fill="white" fill-opacity="0.96"/>
<path d="M13.853 47.2598C11.5113 46.6034 9.47202 45.5221 7.73515 44.0161C5.99829 42.5102 4.75125 40.6984 3.99405 38.5809C3.71721 37.7057 3.68086 36.9201 3.88501 36.2241C4.18522 35.2006 4.82769 34.4502 5.81241 33.973C6.83822 33.5073 7.74141 33.3839 8.52198 33.6027C9.13823 33.7755 9.67989 34.1267 10.147 34.6564C10.6551 35.1977 11.0837 35.783 11.4326 36.4125C12.0381 37.3798 12.6831 38.1366 13.3676 38.683C14.1052 39.1999 14.9875 39.6023 16.0146 39.8903C17.2471 40.2358 18.4875 40.2512 19.7358 39.9365C20.984 39.6218 22.087 39.0448 23.0445 38.2055C24.002 37.3662 24.6549 36.3529 25.0032 35.1656L32.5686 9.37224C32.8808 8.30775 33.5293 7.53691 34.514 7.05971C35.5107 6.54158 36.5226 6.42647 37.5497 6.71439C38.7 7.03686 39.5163 7.66446 39.9986 8.5972C40.4928 9.489 40.5839 10.4671 40.2716 11.5316L32.7062 37.325C31.9737 39.8225 30.6379 41.9514 28.6988 43.7119C26.7597 45.4723 24.4888 46.6967 21.886 47.3849C19.2833 48.0731 16.6056 48.0314 13.853 47.2598Z" fill="black"/>
</svg>
